<svg width="119" height="48" viewBox="0 0 119 48" fill="none" xmlns="http://www.w3.org/2000/svg">
<path d="M15.1312 18.9263V39.582H9.22952V23.2541L15.1312 18.9263Z" fill="#1AC60C"/>
<path d="M24.9672 11.7131V41.2213L19.0656 44.1721V16.3033L24.9672 11.7131Z" fill="#2FC022"/>
<path d="M34.8033 4.82788V36.4016L28.9016 42.2049V9.09017L34.8033 4.82788Z" fill="#2B9921"/>
<mask id="path-4-outside-1_4_195" maskUnits="userSpaceOnUse" x="0.5" y="2" width="44" height="44" fill="black">
<rect fill="white" x="0.5" y="2" width="44" height="44"/>
<path fill-rule="evenodd" clip-rule="evenodd" d="M13.0027 5.08612C16.7683 3.24448 21.0077 2.60048 25.1503 3.24078L24.6921 6.20558C21.1552 5.6589 17.5357 6.20873 14.3207 7.78108C11.1057 9.35344 8.44954 11.8729 6.70956 15.0003C4.96958 18.1277 4.22932 21.7131 4.58841 25.2739C4.9475 28.8347 6.3887 32.2001 8.71807 34.9172C11.0474 37.6343 14.1532 39.5726 17.6174 40.4714C21.0815 41.3702 24.7379 41.1863 28.0944 39.9445C31.451 38.7026 34.3465 36.4624 36.3915 33.5254C38.4365 30.5883 39.5328 27.0953 39.5328 23.5164H42.5328C42.5328 27.7082 41.2488 31.7995 38.8535 35.2396C36.4583 38.6797 33.0668 41.3035 29.1354 42.7581C25.204 44.2126 20.9214 44.428 16.8639 43.3753C12.8065 42.3225 9.1688 40.0522 6.44048 36.8698C3.71217 33.6874 2.02414 29.7456 1.60355 25.5749C1.18296 21.4042 2.05 17.2048 4.08798 13.5417C6.12596 9.87868 9.23709 6.92777 13.0027 5.08612Z"/>
</mask>
<path fill-rule="evenodd" clip-rule="evenodd" d="M13.0027 5.08612C16.7683 3.24448 21.0077 2.60048 25.1503 3.24078L24.6921 6.20558C21.1552 5.6589 17.5357 6.20873 14.3207 7.78108C11.1057 9.35344 8.44954 11.8729 6.70956 15.0003C4.96958 18.1277 4.22932 21.7131 4.58841 25.2739C4.9475 28.8347 6.3887 32.2001 8.71807 34.9172C11.0474 37.6343 14.1532 39.5726 17.6174 40.4714C21.0815 41.3702 24.7379 41.1863 28.0944 39.9445C31.451 38.7026 34.3465 36.4624 36.3915 33.5254C38.4365 30.5883 39.5328 27.0953 39.5328 23.5164H42.5328C42.5328 27.7082 41.2488 31.7995 38.8535 35.2396C36.4583 38.6797 33.0668 41.3035 29.1354 42.7581C25.204 44.2126 20.9214 44.428 16.8639 43.3753C12.8065 42.3225 9.1688 40.0522 6.44048 36.8698C3.71217 33.6874 2.02414 29.7456 1.60355 25.5749C1.18296 21.4042 2.05 17.2048 4.08798 13.5417C6.12596 9.87868 9.23709 6.92777 13.0027 5.08612Z" fill="#30A6FB"/>
<path d="M25.1503 3.24078L26.1386 3.39354L26.2913 2.40527L25.3031 2.25252L25.1503 3.24078ZM24.6921 6.20558L24.5393 7.19384L25.5276 7.34659L25.6803 6.35833L24.6921 6.20558ZM14.3207 7.78108L14.7601 8.6794L14.3207 7.78108ZM6.70956 15.0003L7.58342 15.4865L6.70956 15.0003ZM4.58841 25.2739L5.58336 25.1736L4.58841 25.2739ZM8.71807 34.9172L7.95887 35.5681L8.71807 34.9172ZM17.6174 40.4714L17.8685 39.5035H17.8685L17.6174 40.4714ZM28.0944 39.9445L27.7474 39.0066H27.7474L28.0944 39.9445ZM36.3915 33.5254L35.5709 32.954V32.954L36.3915 33.5254ZM39.5328 23.5164V22.5164H38.5328V23.5164H39.5328ZM42.5328 23.5164H43.5328V22.5164H42.5328V23.5164ZM38.8535 35.2396L38.0329 34.6682L38.8535 35.2396ZM16.8639 43.3753L17.1151 42.4073H17.1151L16.8639 43.3753ZM6.44048 36.8698L5.68129 37.5207L5.68129 37.5207L6.44048 36.8698ZM1.60355 25.5749L2.5985 25.4746L1.60355 25.5749ZM4.08798 13.5417L3.21412 13.0556L4.08798 13.5417ZM25.3031 2.25252C20.9585 1.581 16.5125 2.25639 12.5634 4.1878L13.442 5.98444C17.0241 4.23256 21.0568 3.61995 24.9976 4.22905L25.3031 2.25252ZM25.6803 6.35833L26.1386 3.39354L24.162 3.08803L23.7038 6.05283L25.6803 6.35833ZM14.7601 8.6794C17.7915 7.19682 21.2043 6.67837 24.5393 7.19384L24.8448 5.21731C21.106 4.63943 17.2799 5.22065 13.8814 6.88276L14.7601 8.6794ZM7.58342 15.4865C9.22406 12.5376 11.7286 10.162 14.7601 8.6794L13.8814 6.88276C10.4829 8.54488 7.67501 11.2081 5.8357 14.5141L7.58342 15.4865ZM5.58336 25.1736C5.24478 21.816 5.94277 18.4354 7.58342 15.4865L5.8357 14.5141C3.99638 17.8201 3.21387 21.6101 3.59346 25.3743L5.58336 25.1736ZM9.47726 34.2663C7.28088 31.7044 5.92195 28.5311 5.58336 25.1736L3.59346 25.3743C3.97305 29.1384 5.49652 32.6959 7.95887 35.5681L9.47726 34.2663ZM17.8685 39.5035C14.6021 38.656 11.6736 36.8283 9.47726 34.2663L7.95887 35.5681C10.4212 38.4402 13.7043 40.4893 17.3662 41.4394L17.8685 39.5035ZM27.7474 39.0066C24.5825 40.1775 21.1349 40.3509 17.8685 39.5035L17.3662 41.4394C21.0282 42.3895 24.8933 42.1951 28.4414 40.8823L27.7474 39.0066ZM35.5709 32.954C33.6426 35.7234 30.9123 37.8357 27.7474 39.0066L28.4414 40.8823C31.9896 39.5696 35.0505 37.2015 37.2122 34.0968L35.5709 32.954ZM38.5328 23.5164C38.5328 26.891 37.4991 30.1846 35.5709 32.954L37.2122 34.0968C39.3739 30.992 40.5328 27.2996 40.5328 23.5164H38.5328ZM42.5328 22.5164H39.5328V24.5164H42.5328V22.5164ZM39.6742 35.811C42.1862 32.2032 43.5328 27.9126 43.5328 23.5164H41.5328C41.5328 27.5039 40.3114 31.3958 38.0329 34.6682L39.6742 35.811ZM29.4824 43.6959C33.6054 42.1705 37.1622 39.4188 39.6742 35.811L38.0329 34.6682C35.7544 37.9406 32.5282 40.4366 28.7884 41.8202L29.4824 43.6959ZM16.6128 44.3432C20.8681 45.4473 25.3594 45.2214 29.4824 43.6959L28.7884 41.8202C25.0487 43.2038 20.9748 43.4087 17.1151 42.4073L16.6128 44.3432ZM5.68129 37.5207C8.54258 40.8582 12.3576 43.2392 16.6128 44.3432L17.1151 42.4073C13.2554 41.4059 9.79501 39.2462 7.19968 36.2189L5.68129 37.5207ZM0.608596 25.6753C1.04969 30.0492 2.81999 34.1831 5.68129 37.5207L7.19968 36.2189C4.60435 33.1916 2.99859 29.442 2.5985 25.4746L0.608596 25.6753ZM3.21412 13.0556C1.0768 16.8972 0.167506 21.3013 0.608596 25.6753L2.5985 25.4746C2.19841 21.5072 3.02319 17.5125 4.96184 14.0279L3.21412 13.0556ZM12.5634 4.1878C8.61421 6.11922 5.35144 9.21396 3.21412 13.0556L4.96184 14.0279C6.90049 10.5434 9.85998 7.73633 13.442 5.98444L12.5634 4.1878Z" fill="#30A6FB" mask="url(#path-4-outside-1_4_195)"/>
<path d="M53.8316 20.0861V5.43762H63.1187V7.70325H56.4097V11.5607H62.7281V13.8165H56.4097V17.8204H63.2164V20.0861H53.8316ZM73.9683 20.0861H71.8785L71.7418 18.8849C71.3837 19.3276 70.9377 19.6726 70.4039 19.92C69.87 20.1609 69.2776 20.2814 68.6265 20.2814C67.9364 20.2814 67.3212 20.1479 66.7808 19.881C66.2405 19.6075 65.814 19.2365 65.5015 18.7677C65.1955 18.299 65.0425 17.7651 65.0425 17.1661C65.0425 16.5346 65.2086 15.9812 65.5406 15.506C65.8791 15.0242 66.3381 14.6466 66.9175 14.3732C67.5035 14.0997 68.1708 13.963 68.9195 13.963C69.3752 13.963 69.831 14.0151 70.2867 14.1193C70.7489 14.2234 71.1754 14.3699 71.566 14.5587V14.2462C71.566 13.8165 71.4488 13.4454 71.2144 13.1329C70.98 12.8204 70.6643 12.5795 70.2672 12.4103C69.87 12.2345 69.4241 12.1466 68.9293 12.1466C68.48 12.1466 68.0308 12.2247 67.5816 12.381C67.1324 12.5307 66.7125 12.7553 66.3218 13.0548L65.6382 11.17C66.2632 10.825 66.9013 10.5646 67.5523 10.3888C68.2099 10.213 68.8511 10.1251 69.4761 10.1251C70.3941 10.1251 71.1884 10.3074 71.8589 10.672C72.5295 11.0301 73.0471 11.5444 73.4117 12.215C73.7828 12.879 73.9683 13.6635 73.9683 14.5685V20.0861ZM69.1246 18.3478C69.5477 18.3478 69.9384 18.2599 70.2964 18.0841C70.661 17.9083 70.9573 17.6642 71.1851 17.3517C71.4195 17.0327 71.5432 16.6681 71.5562 16.2579V16.1505C71.2502 15.9292 70.9052 15.7599 70.5211 15.6427C70.1369 15.519 69.7496 15.4572 69.3589 15.4572C68.76 15.4572 68.2685 15.5939 67.8843 15.8673C67.5002 16.1342 67.3082 16.4858 67.3082 16.922C67.3082 17.1889 67.3863 17.4331 67.5425 17.6544C67.6988 17.8693 67.9136 18.0385 68.1871 18.1622C68.467 18.2859 68.7795 18.3478 69.1246 18.3478ZM75.6871 19.2462L76.2339 17.1564C76.4488 17.3712 76.7157 17.5665 77.0347 17.7423C77.3537 17.9181 77.6923 18.0581 78.0504 18.1622C78.4149 18.2599 78.7698 18.3087 79.1148 18.3087C79.577 18.3087 79.9481 18.2143 80.2281 18.0255C80.508 17.8302 80.648 17.5763 80.648 17.2638C80.648 17.0164 80.5634 16.8113 80.3941 16.6486C80.2248 16.4793 80.0035 16.3328 79.73 16.2091C79.4566 16.0789 79.1571 15.9519 78.8316 15.8282C78.4019 15.672 77.9657 15.4865 77.523 15.2716C77.0803 15.0503 76.7092 14.7605 76.4097 14.4025C76.1168 14.0379 75.9703 13.5561 75.9703 12.9572C75.9703 12.3777 76.1168 11.8764 76.4097 11.4532C76.7092 11.0301 77.1259 10.7045 77.6597 10.4767C78.1936 10.2423 78.8153 10.1251 79.525 10.1251C80.6448 10.1251 81.7613 10.4051 82.8746 10.965L82.1812 12.9376C81.9729 12.7814 81.719 12.6381 81.4195 12.5079C81.12 12.3777 80.814 12.2736 80.5015 12.1954C80.189 12.1173 79.9058 12.0782 79.6519 12.0782C79.2808 12.0782 78.9846 12.1596 78.7632 12.3224C78.5419 12.4851 78.4312 12.7 78.4312 12.9669C78.4312 13.1492 78.4931 13.3152 78.6168 13.465C78.7405 13.6082 78.9325 13.7482 79.1929 13.8849C79.4533 14.0216 79.7886 14.1746 80.1988 14.3439C80.6415 14.5131 81.0842 14.7117 81.5269 14.9396C81.9761 15.1609 82.3505 15.4572 82.65 15.8282C82.956 16.1928 83.1089 16.6779 83.1089 17.2833C83.1089 17.8823 82.9462 18.4064 82.6207 18.8556C82.3017 19.3048 81.8524 19.6564 81.273 19.9103C80.7001 20.1577 80.0295 20.2814 79.2613 20.2814C77.9852 20.2814 76.7938 19.9363 75.6871 19.2462ZM89.2515 24.9689H86.6832L88.7144 20.047L83.8707 10.3204H86.5757L89.857 17.3029L92.7476 10.3204H95.316L89.2515 24.9689ZM53.7017 42.0861V28.9025H61.8404V30.9415H56.022V34.4132H61.4888V36.4435H56.022V42.0861H53.7017ZM64.6617 30.9679C64.357 30.9679 64.0992 30.8624 63.8882 30.6515C63.6832 30.4347 63.5806 30.174 63.5806 29.8693C63.5806 29.5704 63.6832 29.3156 63.8882 29.1046C64.0992 28.8878 64.357 28.7794 64.6617 28.7794C64.9722 28.7794 65.233 28.8878 65.4439 29.1046C65.6548 29.3156 65.7603 29.5704 65.7603 29.8693C65.7603 30.174 65.6548 30.4347 65.4439 30.6515C65.233 30.8624 64.9722 30.9679 64.6617 30.9679ZM65.7427 42.0861H63.5806V33.297H65.7427V42.0861ZM76.7027 42.0861H74.5406V37.4454C74.5406 36.713 74.3531 36.1359 73.9781 35.714C73.6031 35.2863 73.0963 35.0724 72.4576 35.0724C71.8013 35.0724 71.274 35.298 70.8755 35.7491C70.4771 36.1945 70.2779 36.795 70.2779 37.5509V42.0861H68.1158V33.297H69.9L69.9703 34.712C70.2867 34.1964 70.7027 33.8038 71.2183 33.5343C71.7398 33.2589 72.3492 33.1212 73.0464 33.1212C74.1832 33.1212 75.0767 33.4669 75.7271 34.1583C76.3775 34.8497 76.7027 35.8048 76.7027 37.0236V42.0861ZM86.4673 42.0861H84.5865L84.4634 41.005C84.1412 41.4034 83.7398 41.714 83.2593 41.9366C82.7789 42.1534 82.2457 42.2618 81.6597 42.2618C81.0386 42.2618 80.4849 42.1417 79.9986 41.9015C79.5123 41.6554 79.1285 41.3214 78.8472 40.8995C78.5718 40.4777 78.4341 39.9972 78.4341 39.4581C78.4341 38.8898 78.5836 38.3917 78.8824 37.964C79.1871 37.5304 79.6002 37.1906 80.1216 36.9445C80.649 36.6984 81.2496 36.5753 81.9234 36.5753C82.3336 36.5753 82.7437 36.6222 83.1539 36.7159C83.5699 36.8097 83.9537 36.9415 84.3052 37.1115V36.8302C84.3052 36.4435 84.1998 36.1095 83.9888 35.8282C83.7779 35.547 83.4937 35.3302 83.1363 35.1779C82.7789 35.0197 82.3775 34.9406 81.9322 34.9406C81.5279 34.9406 81.1236 35.0109 80.7193 35.1515C80.315 35.2863 79.9371 35.4884 79.5855 35.7579L78.9703 34.0616C79.5328 33.7511 80.107 33.5167 80.6929 33.3585C81.2847 33.2003 81.8619 33.1212 82.4244 33.1212C83.2505 33.1212 83.9654 33.2853 84.5689 33.6134C85.1724 33.9357 85.6382 34.3986 85.9664 35.0021C86.3004 35.5997 86.4673 36.3058 86.4673 37.1202V42.0861ZM82.108 40.5216C82.4888 40.5216 82.8404 40.4425 83.1627 40.2843C83.4908 40.1261 83.7574 39.9064 83.9625 39.6251C84.1734 39.338 84.2847 39.0099 84.2964 38.6407V38.5441C84.0211 38.3448 83.7105 38.1925 83.3648 38.087C83.0191 37.9757 82.6705 37.92 82.3189 37.92C81.7798 37.92 81.3375 38.0431 80.9918 38.2892C80.6461 38.5294 80.4732 38.8458 80.4732 39.2384C80.4732 39.4786 80.5435 39.6984 80.6841 39.8976C80.8248 40.0909 81.0181 40.2433 81.2642 40.3546C81.5162 40.4659 81.7974 40.5216 82.108 40.5216ZM97.2164 42.0861H95.0543V37.4454C95.0543 36.713 94.8668 36.1359 94.4918 35.714C94.1168 35.2863 93.6099 35.0724 92.9713 35.0724C92.315 35.0724 91.7877 35.298 91.3892 35.7491C90.9908 36.1945 90.7916 36.795 90.7916 37.5509V42.0861H88.6295V33.297H90.4136L90.4839 34.712C90.8004 34.1964 91.2164 33.8038 91.732 33.5343C92.2535 33.2589 92.8629 33.1212 93.5601 33.1212C94.6968 33.1212 95.5904 33.4669 96.2408 34.1583C96.8912 34.8497 97.2164 35.8048 97.2164 37.0236V42.0861ZM107.016 40.7325C106.588 41.2189 106.07 41.5968 105.461 41.8663C104.851 42.13 104.186 42.2618 103.465 42.2618C102.575 42.2618 101.775 42.0626 101.066 41.6642C100.363 41.2657 99.8062 40.7238 99.3961 40.0382C98.9918 39.3468 98.7896 38.5646 98.7896 37.6915C98.7896 36.8185 98.9918 36.0392 99.3961 35.3536C99.8062 34.6622 100.363 34.1173 101.066 33.7189C101.775 33.3204 102.575 33.1212 103.465 33.1212C104.18 33.1212 104.839 33.2531 105.443 33.5167C106.052 33.7804 106.571 34.1525 106.999 34.6329L105.733 35.9777C105.469 35.6906 105.15 35.4679 104.775 35.3097C104.406 35.1515 104.013 35.0724 103.597 35.0724C103.093 35.0724 102.645 35.1837 102.253 35.4064C101.866 35.629 101.561 35.9366 101.338 36.3292C101.122 36.7218 101.013 37.173 101.013 37.6827C101.013 38.1925 101.122 38.6466 101.338 39.045C101.561 39.4376 101.866 39.7482 102.253 39.9767C102.645 40.1993 103.093 40.3107 103.597 40.3107C104.013 40.3107 104.409 40.2316 104.784 40.0734C105.159 39.9093 105.475 39.6866 105.733 39.4054L107.016 40.7325ZM116.693 41.0665C115.597 41.8634 114.399 42.2618 113.098 42.2618C112.155 42.2618 111.308 42.0568 110.558 41.6466C109.808 41.2365 109.213 40.6769 108.774 39.9679C108.34 39.2531 108.124 38.4503 108.124 37.5597C108.124 36.7101 108.32 35.9513 108.712 35.2833C109.111 34.6154 109.653 34.088 110.338 33.7013C111.03 33.3146 111.809 33.1212 112.676 33.1212C113.579 33.1212 114.37 33.3351 115.049 33.7628C115.735 34.1847 116.268 34.7736 116.649 35.5294C117.03 36.2794 117.22 37.1525 117.22 38.1486V38.4298H110.453C110.558 38.8282 110.743 39.1798 111.006 39.4845C111.276 39.7892 111.61 40.0265 112.008 40.1964C112.407 40.3663 112.855 40.4513 113.353 40.4513C114.291 40.4513 115.158 40.1466 115.955 39.5372L116.693 41.0665ZM110.365 37.1642H115.216C115.169 36.7247 115.035 36.3409 114.812 36.0128C114.595 35.6847 114.311 35.4298 113.96 35.2482C113.614 35.0607 113.224 34.9669 112.791 34.9669C112.351 34.9669 111.959 35.0607 111.613 35.2482C111.267 35.4357 110.986 35.6964 110.769 36.0304C110.552 36.3585 110.418 36.7365 110.365 37.1642Z" fill="#30A6FB"/>
</svg>
