<svg width="44" height="44" viewBox="0 0 44 44" fill="none" xmlns="http://www.w3.org/2000/svg">
<path d="M14.6312 16.9263V37.582H8.72955V21.2541L14.6312 16.9263Z" fill="#1AC60C"/>
<path d="M24.4672 9.71313V39.2213L18.5656 42.1721V14.3033L24.4672 9.71313Z" fill="#2FC022"/>
<path d="M34.3033 2.82788V34.4016L28.4017 40.2049V7.09017L34.3033 2.82788Z" fill="#2B9921"/>
<mask id="path-4-outside-1_2_173" maskUnits="userSpaceOnUse" x="0" y="0" width="44" height="44" fill="black">
<rect fill="white" width="44" height="44"/>
<path fill-rule="evenodd" clip-rule="evenodd" d="M12.5027 3.08612C16.2683 1.24448 20.5077 0.600477 24.6503 1.24078L24.1921 4.20558C20.6552 3.6589 17.0357 4.20873 13.8207 5.78108C10.6057 7.35344 7.94954 9.87285 6.20956 13.0003C4.46958 16.1277 3.72932 19.7131 4.08841 23.2739C4.4475 26.8347 5.8887 30.2001 8.21807 32.9172C10.5474 35.6343 13.6532 37.5726 17.1174 38.4714C20.5815 39.3702 24.2379 39.1863 27.5944 37.9445C30.951 36.7026 33.8465 34.4624 35.8915 31.5254C37.9365 28.5883 39.0328 25.0953 39.0328 21.5164H42.0328C42.0328 25.7082 40.7488 29.7995 38.3535 33.2396C35.9583 36.6797 32.5668 39.3035 28.6354 40.7581C24.704 42.2126 20.4214 42.428 16.3639 41.3753C12.3065 40.3225 8.6688 38.0522 5.94048 34.8698C3.21217 31.6874 1.52414 27.7456 1.10355 23.5749C0.68296 19.4042 1.55 15.2048 3.58798 11.5417C5.62596 7.87868 8.73709 4.92777 12.5027 3.08612Z"/>
</mask>
<path fill-rule="evenodd" clip-rule="evenodd" d="M12.5027 3.08612C16.2683 1.24448 20.5077 0.600477 24.6503 1.24078L24.1921 4.20558C20.6552 3.6589 17.0357 4.20873 13.8207 5.78108C10.6057 7.35344 7.94954 9.87285 6.20956 13.0003C4.46958 16.1277 3.72932 19.7131 4.08841 23.2739C4.4475 26.8347 5.8887 30.2001 8.21807 32.9172C10.5474 35.6343 13.6532 37.5726 17.1174 38.4714C20.5815 39.3702 24.2379 39.1863 27.5944 37.9445C30.951 36.7026 33.8465 34.4624 35.8915 31.5254C37.9365 28.5883 39.0328 25.0953 39.0328 21.5164H42.0328C42.0328 25.7082 40.7488 29.7995 38.3535 33.2396C35.9583 36.6797 32.5668 39.3035 28.6354 40.7581C24.704 42.2126 20.4214 42.428 16.3639 41.3753C12.3065 40.3225 8.6688 38.0522 5.94048 34.8698C3.21217 31.6874 1.52414 27.7456 1.10355 23.5749C0.68296 19.4042 1.55 15.2048 3.58798 11.5417C5.62596 7.87868 8.73709 4.92777 12.5027 3.08612Z" fill="#30A6FB"/>
<path d="M24.6503 1.24078L25.6386 1.39354L25.7913 0.405272L24.8031 0.25252L24.6503 1.24078ZM24.1921 4.20558L24.0393 5.19384L25.0276 5.34659L25.1803 4.35833L24.1921 4.20558ZM13.8207 5.78108L14.2601 6.6794L13.8207 5.78108ZM6.20956 13.0003L7.08342 13.4865L6.20956 13.0003ZM4.08841 23.2739L5.08336 23.1736L4.08841 23.2739ZM8.21807 32.9172L7.45887 33.5681L8.21807 32.9172ZM17.1174 38.4714L17.3685 37.5035H17.3685L17.1174 38.4714ZM27.5944 37.9445L27.2474 37.0066H27.2474L27.5944 37.9445ZM35.8915 31.5254L35.0709 30.954V30.954L35.8915 31.5254ZM39.0328 21.5164V20.5164H38.0328V21.5164H39.0328ZM42.0328 21.5164H43.0328V20.5164H42.0328V21.5164ZM38.3535 33.2396L37.5329 32.6682L38.3535 33.2396ZM16.3639 41.3753L16.6151 40.4073H16.6151L16.3639 41.3753ZM5.94048 34.8698L5.18129 35.5207L5.18129 35.5207L5.94048 34.8698ZM1.10355 23.5749L2.0985 23.4746L1.10355 23.5749ZM3.58798 11.5417L2.71412 11.0556L3.58798 11.5417ZM24.8031 0.25252C20.4585 -0.418998 16.0125 0.256393 12.0634 2.1878L12.942 3.98444C16.5241 2.23256 20.5568 1.61995 24.4976 2.22905L24.8031 0.25252ZM25.1803 4.35833L25.6386 1.39354L23.662 1.08803L23.2038 4.05283L25.1803 4.35833ZM14.2601 6.6794C17.2915 5.19682 20.7043 4.67837 24.0393 5.19384L24.3448 3.21731C20.606 2.63943 16.7799 3.22065 13.3814 4.88276L14.2601 6.6794ZM7.08342 13.4865C8.72406 10.5376 11.2286 8.16199 14.2601 6.6794L13.3814 4.88276C9.98286 6.54488 7.17501 9.20813 5.3357 12.5141L7.08342 13.4865ZM5.08336 23.1736C4.74478 19.816 5.44277 16.4354 7.08342 13.4865L5.3357 12.5141C3.49638 15.8201 2.71387 19.6101 3.09346 23.3743L5.08336 23.1736ZM8.97726 32.2663C6.78088 29.7044 5.42195 26.5311 5.08336 23.1736L3.09346 23.3743C3.47305 27.1384 4.99652 30.6959 7.45887 33.5681L8.97726 32.2663ZM17.3685 37.5035C14.1021 36.656 11.1736 34.8283 8.97726 32.2663L7.45887 33.5681C9.92122 36.4402 13.2043 38.4893 16.8662 39.4394L17.3685 37.5035ZM27.2474 37.0066C24.0825 38.1775 20.6349 38.3509 17.3685 37.5035L16.8662 39.4394C20.5282 40.3895 24.3933 40.1951 27.9414 38.8823L27.2474 37.0066ZM35.0709 30.954C33.1426 33.7234 30.4123 35.8357 27.2474 37.0066L27.9414 38.8823C31.4896 37.5696 34.5505 35.2015 36.7122 32.0968L35.0709 30.954ZM38.0328 21.5164C38.0328 24.891 36.9991 28.1846 35.0709 30.954L36.7122 32.0968C38.8739 28.992 40.0328 25.2996 40.0328 21.5164H38.0328ZM42.0328 20.5164H39.0328V22.5164H42.0328V20.5164ZM39.1742 33.811C41.6862 30.2032 43.0328 25.9126 43.0328 21.5164H41.0328C41.0328 25.5039 39.8114 29.3958 37.5329 32.6682L39.1742 33.811ZM28.9824 41.6959C33.1054 40.1705 36.6622 37.4188 39.1742 33.811L37.5329 32.6682C35.2544 35.9406 32.0282 38.4366 28.2884 39.8202L28.9824 41.6959ZM16.1128 42.3432C20.3681 43.4473 24.8594 43.2214 28.9824 41.6959L28.2884 39.8202C24.5487 41.2038 20.4748 41.4087 16.6151 40.4073L16.1128 42.3432ZM5.18129 35.5207C8.04258 38.8582 11.8576 41.2392 16.1128 42.3432L16.6151 40.4073C12.7554 39.4059 9.29501 37.2462 6.69968 34.2189L5.18129 35.5207ZM0.108596 23.6753C0.549686 28.0492 2.31999 32.1831 5.18129 35.5207L6.69968 34.2189C4.10435 31.1916 2.49859 27.442 2.0985 23.4746L0.108596 23.6753ZM2.71412 11.0556C0.576803 14.8972 -0.332494 19.3013 0.108596 23.6753L2.0985 23.4746C1.69841 19.5072 2.52319 15.5125 4.46184 12.0279L2.71412 11.0556ZM12.0634 2.1878C8.11421 4.11922 4.85144 7.21396 2.71412 11.0556L4.46184 12.0279C6.40049 8.5434 9.35998 5.73633 12.942 3.98444L12.0634 2.1878Z" fill="#30A6FB" mask="url(#path-4-outside-1_2_173)"/>
</svg>
