<svg width="37" height="23" viewBox="0 0 37 23" fill="none" xmlns="http://www.w3.org/2000/svg">
<path fill-rule="evenodd" clip-rule="evenodd" d="M18.5 19.3736C20.7709 17.3411 22.2 14.3875 22.2 11.1C22.2 7.81255 20.7709 4.85889 18.5 2.82641C20.4638 1.06876 23.0571 0 25.9 0C32.0304 0 37 4.96964 37 11.1C37 17.2304 32.0304 22.2 25.9 22.2C23.0571 22.2 20.4638 21.1312 18.5 19.3736Z" fill="#FFBD14"/>
<path fill-rule="evenodd" clip-rule="evenodd" d="M18.5 2.82641C16.2291 4.85889 14.8 7.81255 14.8 11.1C14.8 14.3874 16.2291 17.3411 18.5 19.3736C16.5362 21.1312 13.9429 22.2 11.1 22.2C4.96964 22.2 0 17.2304 0 11.1C0 4.96964 4.96964 0 11.1 0C13.9429 0 16.5362 1.06876 18.5 2.82641Z" fill="#FF0000"/>
<path fill-rule="evenodd" clip-rule="evenodd" d="M18.5001 19.3737C20.7709 17.3412 22.2 14.3876 22.2 11.1001C22.2 7.81268 20.7709 4.85902 18.5 2.82654C16.2292 4.85902 14.8 7.81268 14.8 11.1001C14.8 14.3876 16.2292 17.3412 18.5001 19.3737Z" fill="#FF8080"/>
</svg>
